<?xml version="1.0" encoding="UTF-8" standalone="no"?><!DOCTYPE svg PUBLIC "-//W3C//DTD SVG 1.1//EN" "http://www.w3.org/Graphics/SVG/1.1/DTD/svg11.dtd"><svg width="100%" height="100%" viewBox="0 0 791 771" version="1.1" xmlns="http://www.w3.org/2000/svg" xmlns:xlink="http://www.w3.org/1999/xlink" xml:space="preserve" style="fill-rule:evenodd;clip-rule:evenodd;stroke-linejoin:round;stroke-miterlimit:1.41421;"><path d="M763.923,451.774c-16.883,-3.067 -34.858,15.438 -44.049,43.188l-63.084,-20.997c11.501,-31.884 17.807,-66.25 17.807,-102.1c0,-49.603 -12.086,-96.355 -33.354,-137.602l47.873,-35.447c21.213,18.486 45.818,24.713 57.078,13.453c12.199,-12.2 4.07,-40.107 -18.161,-62.338c-22.226,-22.231 -50.133,-30.355 -62.332,-18.156c-10.012,10.012 -6.154,30.591 7.785,49.947l-43.641,32.311c-29.741,-48.143 -72.664,-87.252 -123.755,-112.309l3.681,-37.251c19.763,0.32 35.585,-6.782 37.689,-18.348c2.565,-14.13 -16.225,-29.377 -41.975,-34.056c-25.75,-4.684 -48.708,2.984 -51.274,17.114c-2.251,12.376 11.895,25.608 32.744,31.845l-3.052,30.955c-34.1,-13.418 -71.199,-20.869 -110.062,-20.869c-35.684,0 -69.902,6.251 -101.663,17.659l-10.066,-29.922c22.319,-7.511 37.266,-21.75 35.074,-35.615c-2.689,-17.04 -30.046,-26.88 -61.094,-21.975c-31.049,4.905 -54.041,22.693 -51.353,39.733c2.502,15.841 26.375,25.293 54.661,22.629l11.383,33.835c-56.503,25.381 -103.757,67.641 -135.287,120.428l-39.045,-23.292c0.123,-0.629 0.28,-1.239 0.393,-1.873c6.847,-37.659 -4.359,-71.228 -25.027,-74.983c-20.663,-3.76 -42.967,23.725 -49.809,61.384c-6.842,37.654 4.365,71.228 25.027,74.983c15.797,2.871 32.518,-12.533 42.594,-36.749l34.828,20.776c-20.038,40.288 -31.368,85.678 -31.368,133.733c0,53.097 13.807,102.945 37.954,146.242l-27.057,7.618c-12.671,-27.224 -34.528,-43.842 -49.858,-37.246c-15.846,6.817 -18.618,35.757 -6.188,64.633c12.425,28.876 35.344,46.752 51.19,39.935c12.288,-5.289 16.598,-23.902 12.179,-45.44l32.194,-9.068c40.829,61.202 103.486,106.573 176.858,124.999l-2.266,31.741c-34.253,-4.698 -63.832,6.011 -67.287,25.038c-3.637,20.009 22.968,41.596 59.423,48.216c36.455,6.626 68.948,-4.222 72.585,-24.226c3.023,-16.642 -14.917,-34.351 -42.014,-43.66l2.311,-32.376c16.499,2.807 33.432,4.35 50.728,4.35c65.768,0 126.557,-21.174 176.056,-56.985l10.086,23.553c-22.85,17.468 -34.056,40.996 -24.959,54.37c9.703,14.268 38.642,11.496 64.633,-6.183c25.991,-17.684 39.198,-43.582 29.495,-57.84c-7.805,-11.477 -28.069,-11.752 -49.224,-2.286l-11.28,-26.339c33.713,-28.704 60.981,-64.702 79.417,-105.571l66.668,22.197c-4.345,33.81 6.365,62.824 25.199,66.25c20.005,3.637 41.596,-22.968 48.217,-59.423c6.625,-36.455 -4.222,-68.953 -24.226,-72.59" style="fill:#ff7481;fill-rule:nonzero;"/><path d="M330.922,254.349c0,-22.467 -18.211,-40.682 -40.677,-40.682c-22.467,0 -40.682,18.215 -40.682,40.682c0,22.466 18.215,40.677 40.682,40.677c22.466,0 40.677,-18.211 40.677,-40.677" style="fill:#ff5c6b;fill-rule:nonzero;"/><path d="M317.984,446.261c-22.467,0 -40.677,18.215 -40.677,40.677c0,22.466 18.21,40.681 40.677,40.681c22.466,0 40.677,-18.215 40.677,-40.681c0,-22.462 -18.211,-40.677 -40.677,-40.677" style="fill:#ff5c6b;fill-rule:nonzero;"/><path d="M461.657,254.349c30.916,0 55.978,-25.062 55.978,-55.983c0,-30.915 -25.062,-55.977 -55.978,-55.977c-30.915,0 -55.977,25.062 -55.977,55.977c0,30.921 25.062,55.983 55.977,55.983" style="fill:#ff5c6b;fill-rule:nonzero;"/><path d="M502.336,486.94c-22.467,0 -40.677,18.215 -40.677,40.677c0,22.471 18.21,40.681 40.677,40.681c22.467,0 40.682,-18.21 40.682,-40.681c0,-22.462 -18.215,-40.677 -40.682,-40.677" style="fill:#ff5c6b;fill-rule:nonzero;"/><path d="M474.78,365.432c0,-19.174 -15.546,-34.72 -34.72,-34.72c-19.178,0 -34.725,15.546 -34.725,34.72c0,19.178 15.547,34.719 34.725,34.719c19.174,0 34.72,-15.541 34.72,-34.719" style="fill:#ff5c6b;fill-rule:nonzero;"/><path d="M180.281,330.71c-11.231,0 -20.338,9.107 -20.338,20.338c0,11.236 9.107,20.339 20.338,20.339c11.236,0 20.338,-9.103 20.338,-20.339c0,-11.231 -9.102,-20.338 -20.338,-20.338" style="fill:#ff5c6b;fill-rule:nonzero;"/><g><g><clipPath id="_clip1"><rect x="0" y="0.002" width="632.339" height="770.477"/></clipPath><g clip-path="url(#_clip1)"><path d="M230.807,720.318c-3.638,20.004 22.968,41.591 59.422,48.216c36.455,6.626 68.954,-4.222 72.586,-24.226c3.027,-16.642 -14.912,-34.351 -42.009,-43.66l2.31,-32.376c16.5,2.807 33.427,4.345 50.728,4.345c65.763,0 126.553,-21.169 176.052,-56.98l10.086,23.553c-22.85,17.463 -34.057,40.991 -24.954,54.37c9.702,14.264 38.637,11.496 64.628,-6.188c25.99,-17.679 39.202,-43.577 29.495,-57.84c-7.805,-11.472 -28.07,-11.747 -49.224,-2.286l-11.28,-26.334c11.722,-9.983 22.609,-20.894 32.67,-32.538c-54.223,33.211 -326.717,48.3 -380.262,-148.026c-53.584,-196.474 109.866,-346.127 109.866,-346.127c-20.299,2.914 -39.959,7.805 -58.745,14.548l-10.066,-29.918c22.325,-7.51 37.266,-21.749 35.074,-35.614c-2.688,-17.04 -30.041,-26.88 -61.094,-21.975c-31.048,4.905 -54.041,22.693 -51.352,39.733c2.502,15.841 26.374,25.293 54.66,22.629l11.383,33.835c-56.503,25.376 -103.751,67.641 -135.281,120.424l-39.05,-23.288c0.128,-0.629 0.28,-1.239 0.398,-1.873c6.842,-37.659 -4.365,-71.228 -25.032,-74.988c-20.663,-3.755 -42.963,23.729 -49.804,61.389c-6.847,37.654 4.359,71.228 25.027,74.983c15.792,2.871 32.513,-12.533 42.589,-36.754l34.828,20.78c-20.039,40.289 -31.368,85.679 -31.368,133.734c0,53.097 13.811,102.94 37.954,146.237l-27.057,7.623c-12.667,-27.224 -34.529,-43.842 -49.859,-37.246c-15.846,6.817 -18.618,35.757 -6.188,64.628c12.426,28.876 35.349,46.757 51.195,39.935c12.283,-5.284 16.598,-23.897 12.18,-45.435l32.188,-9.068c40.83,61.202 103.487,106.573 176.858,124.999l-2.266,31.741c-34.248,-4.698 -63.826,6.007 -67.286,25.038" style="fill:#ff5c6b;fill-rule:nonzero;"/></g></g></g></svg>